<mxfile host="app.diagrams.net" modified="2022-10-03T16:28:30.787Z" agent="5.0 (Windows NT 10.0; Win64; x64) AppleWebKit/537.36 (KHTML, like Gecko) Chrome/105.0.0.0 Safari/537.36" etag="rgM3bolwkiOatjovYOeA" version="20.4.0" type="github">
  <diagram id="-pJ40FPdviTHMuccgcaF" name="Page-1">
    <mxGraphModel dx="593" dy="308" grid="1" gridSize="10" guides="1" tooltips="1" connect="1" arrows="1" fold="1" page="1" pageScale="1" pageWidth="827" pageHeight="1169" math="0" shadow="0">
      <root>
        <mxCell id="0" />
        <mxCell id="1" parent="0" />
        <mxCell id="yltn-6YaVDsgm3mTwEoe-6" style="edgeStyle=orthogonalEdgeStyle;rounded=0;orthogonalLoop=1;jettySize=auto;html=1;entryX=0.5;entryY=0;entryDx=0;entryDy=0;fontFamily=Times New Roman;" edge="1" parent="1" source="yltn-6YaVDsgm3mTwEoe-1" target="yltn-6YaVDsgm3mTwEoe-3">
          <mxGeometry relative="1" as="geometry" />
        </mxCell>
        <mxCell id="yltn-6YaVDsgm3mTwEoe-1" value="&lt;p&gt;&lt;font face=&quot;Times New Roman&quot;&gt;Mula&lt;/font&gt;&lt;/p&gt;" style="rounded=1;whiteSpace=wrap;html=1;" vertex="1" parent="1">
          <mxGeometry x="370" y="10" width="70" height="30" as="geometry" />
        </mxCell>
        <mxCell id="yltn-6YaVDsgm3mTwEoe-3" value="Pengguna Sudah Daftar?" style="rhombus;whiteSpace=wrap;html=1;fontFamily=Times New Roman;fontSize=11;" vertex="1" parent="1">
          <mxGeometry x="352.5" y="70" width="105" height="80" as="geometry" />
        </mxCell>
        <mxCell id="yltn-6YaVDsgm3mTwEoe-4" style="edgeStyle=orthogonalEdgeStyle;rounded=0;orthogonalLoop=1;jettySize=auto;html=1;fontFamily=Times New Roman;exitX=1;exitY=0.5;exitDx=0;exitDy=0;" edge="1" parent="1" source="yltn-6YaVDsgm3mTwEoe-3">
          <mxGeometry relative="1" as="geometry">
            <mxPoint x="510" y="140" as="targetPoint" />
            <Array as="points">
              <mxPoint x="510" y="110" />
            </Array>
          </mxGeometry>
        </mxCell>
      </root>
    </mxGraphModel>
  </diagram>
</mxfile>
